<mxfile host="app.diagrams.net" agent="Mozilla/5.0 (Windows NT 10.0; Win64; x64) AppleWebKit/537.36 (KHTML, like Gecko) Chrome/141.0.0.0 Safari/537.36" version="28.2.5">
  <diagram name="Page-1" id="K_bPkuX86wny9HBAq6HY">
    <mxGraphModel dx="1426" dy="743" grid="1" gridSize="10" guides="1" tooltips="1" connect="1" arrows="1" fold="1" page="1" pageScale="1" pageWidth="827" pageHeight="1169" math="0" shadow="0">
      <root>
        <mxCell id="0" />
        <mxCell id="1" parent="0" />
        <mxCell id="gHyegaDocdqHqECj0ACo-2" value="" style="rounded=0;whiteSpace=wrap;html=1;fillColor=#f5f5f5;strokeColor=#666666;labelPosition=center;verticalLabelPosition=top;align=center;verticalAlign=bottom;fontColor=#333333;" vertex="1" parent="1">
          <mxGeometry x="70" y="80" width="1067" height="450" as="geometry" />
        </mxCell>
        <mxCell id="gHyegaDocdqHqECj0ACo-3" value="&lt;span style=&quot;font-weight: 700;&quot;&gt;mylab-development-k8sgpt-westeurope&lt;/span&gt;" style="rounded=0;whiteSpace=wrap;html=1;fillColor=#fff2cc;strokeColor=#d6b656;labelPosition=center;verticalLabelPosition=top;align=center;verticalAlign=bottom;" vertex="1" parent="1">
          <mxGeometry x="111" y="126" width="1006" height="384" as="geometry" />
        </mxCell>
        <mxCell id="gHyegaDocdqHqECj0ACo-4" value="AzuRex27" style="rounded=0;whiteSpace=wrap;html=1;fillColor=#dae8fc;strokeColor=#6c8ebf;textShadow=0;shadow=0;labelPosition=center;verticalLabelPosition=top;align=center;verticalAlign=bottom;fontColor=#3628f0;" vertex="1" parent="1">
          <mxGeometry x="130" y="146" width="970" height="340" as="geometry" />
        </mxCell>
        <mxCell id="gHyegaDocdqHqECj0ACo-5" style="edgeStyle=orthogonalEdgeStyle;rounded=0;orthogonalLoop=1;jettySize=auto;html=1;flowAnimation=1;" edge="1" parent="1" source="gHyegaDocdqHqECj0ACo-6" target="gHyegaDocdqHqECj0ACo-8">
          <mxGeometry relative="1" as="geometry" />
        </mxCell>
        <mxCell id="gHyegaDocdqHqECj0ACo-6" value="NGNIX Ingress &lt;br&gt;Controller Service" style="image;aspect=fixed;html=1;points=[];align=center;fontSize=12;image=img/lib/azure2/networking/Load_Balancers.svg;labelBackgroundColor=default;" vertex="1" parent="1">
          <mxGeometry x="377" y="193" width="72" height="72" as="geometry" />
        </mxCell>
        <mxCell id="gHyegaDocdqHqECj0ACo-7" value="WAF - OWASP 3.2" style="points=[];aspect=fixed;html=1;align=right;shadow=0;dashed=0;fillColor=#FF6A00;strokeColor=none;shape=mxgraph.alibaba_cloud.waf_web_application_firewall;labelPosition=left;verticalLabelPosition=top;verticalAlign=bottom;" vertex="1" parent="1">
          <mxGeometry x="333" y="203.01" width="59.2" height="51.98" as="geometry" />
        </mxCell>
        <mxCell id="gHyegaDocdqHqECj0ACo-8" value="Virtual Network" style="image;aspect=fixed;html=1;points=[];align=left;fontSize=12;image=img/lib/azure2/networking/Virtual_Networks.svg;labelBackgroundColor=default;labelPosition=right;verticalLabelPosition=middle;verticalAlign=middle;" vertex="1" parent="1">
          <mxGeometry x="187" y="336" width="67" height="40" as="geometry" />
        </mxCell>
        <mxCell id="gHyegaDocdqHqECj0ACo-9" value="&lt;b&gt;UDR&lt;/b&gt;" style="image;aspect=fixed;html=1;points=[];align=right;fontSize=12;image=img/lib/azure2/networking/Route_Tables.svg;labelBackgroundColor=none;labelPosition=left;verticalLabelPosition=middle;verticalAlign=middle;" vertex="1" parent="1">
          <mxGeometry x="167" y="312" width="24.77" height="24" as="geometry" />
        </mxCell>
        <mxCell id="gHyegaDocdqHqECj0ACo-10" value="" style="rounded=0;whiteSpace=wrap;html=1;fillColor=#E5CCFF;strokeColor=#9673a6;" vertex="1" parent="1">
          <mxGeometry x="467" y="160" width="323" height="251" as="geometry" />
        </mxCell>
        <mxCell id="gHyegaDocdqHqECj0ACo-11" value="NSG" style="image;aspect=fixed;html=1;points=[];align=center;fontSize=12;image=img/lib/azure2/networking/Network_Security_Groups.svg;labelBackgroundColor=none;" vertex="1" parent="1">
          <mxGeometry x="237" y="279" width="25.53" height="31" as="geometry" />
        </mxCell>
        <mxCell id="gHyegaDocdqHqECj0ACo-12" value="Azure Kubernetes&amp;nbsp;&lt;div&gt;Service&lt;/div&gt;" style="image;aspect=fixed;html=1;points=[];align=right;fontSize=12;image=img/lib/azure2/containers/Kubernetes_Services.svg;labelPosition=left;verticalLabelPosition=middle;verticalAlign=middle;" vertex="1" parent="1">
          <mxGeometry x="443" y="375" width="68" height="60" as="geometry" />
        </mxCell>
        <mxCell id="gHyegaDocdqHqECj0ACo-13" value="AKS Agent&lt;br&gt;Nodes" style="image;aspect=fixed;html=1;points=[];align=center;fontSize=12;image=img/lib/azure2/compute/VM_Scale_Sets.svg;labelBackgroundColor=default;" vertex="1" parent="1">
          <mxGeometry x="482" y="195" width="68" height="68" as="geometry" />
        </mxCell>
        <mxCell id="gHyegaDocdqHqECj0ACo-14" value="" style="edgeStyle=orthogonalEdgeStyle;rounded=0;orthogonalLoop=1;jettySize=auto;html=1;" edge="1" parent="1" source="gHyegaDocdqHqECj0ACo-6" target="gHyegaDocdqHqECj0ACo-13">
          <mxGeometry relative="1" as="geometry" />
        </mxCell>
        <mxCell id="gHyegaDocdqHqECj0ACo-15" value="&lt;div&gt;Azure CNI Overlay&lt;/div&gt;" style="text;html=1;align=center;verticalAlign=middle;whiteSpace=wrap;rounded=0;" vertex="1" parent="1">
          <mxGeometry x="500" y="357.6" width="63" height="30" as="geometry" />
        </mxCell>
        <mxCell id="gHyegaDocdqHqECj0ACo-16" value="Entra Managed&amp;nbsp;&lt;div&gt;Identity&lt;/div&gt;" style="image;aspect=fixed;html=1;points=[];align=center;fontSize=12;image=img/lib/azure2/identity/Entra_Managed_Identities.svg;" vertex="1" parent="1">
          <mxGeometry x="884" y="194.55" width="68" height="60.440000000000005" as="geometry" />
        </mxCell>
        <mxCell id="gHyegaDocdqHqECj0ACo-17" style="edgeStyle=orthogonalEdgeStyle;rounded=0;orthogonalLoop=1;jettySize=auto;html=1;flowAnimation=1;" edge="1" parent="1" source="gHyegaDocdqHqECj0ACo-18" target="gHyegaDocdqHqECj0ACo-8">
          <mxGeometry relative="1" as="geometry">
            <mxPoint x="849" y="451" as="targetPoint" />
            <Array as="points">
              <mxPoint x="918" y="452.6" />
              <mxPoint x="220" y="452.6" />
            </Array>
          </mxGeometry>
        </mxCell>
        <mxCell id="gHyegaDocdqHqECj0ACo-18" value="Azure Key Vault&lt;br&gt;(Secret)" style="image;aspect=fixed;html=1;points=[];align=center;fontSize=12;image=img/lib/azure2/security/Key_Vaults.svg;labelBackgroundColor=default;" vertex="1" parent="1">
          <mxGeometry x="890" y="344.6" width="56" height="56" as="geometry" />
        </mxCell>
        <mxCell id="gHyegaDocdqHqECj0ACo-19" style="edgeStyle=orthogonalEdgeStyle;rounded=0;orthogonalLoop=1;jettySize=auto;html=1;flowAnimation=1;" edge="1" parent="1" source="gHyegaDocdqHqECj0ACo-36" target="gHyegaDocdqHqECj0ACo-8">
          <mxGeometry relative="1" as="geometry">
            <Array as="points">
              <mxPoint x="1034" y="452.6" />
              <mxPoint x="220" y="452.6" />
            </Array>
          </mxGeometry>
        </mxCell>
        <mxCell id="gHyegaDocdqHqECj0ACo-20" style="edgeStyle=orthogonalEdgeStyle;rounded=0;orthogonalLoop=1;jettySize=auto;html=1;flowAnimation=1;" edge="1" parent="1" target="gHyegaDocdqHqECj0ACo-8">
          <mxGeometry relative="1" as="geometry">
            <Array as="points">
              <mxPoint x="1036" y="452.6" />
              <mxPoint x="220" y="452.6" />
            </Array>
            <mxPoint x="1036.25" y="395.5000000000001" as="sourcePoint" />
          </mxGeometry>
        </mxCell>
        <mxCell id="gHyegaDocdqHqECj0ACo-21" value="Privates EndPoints" style="edgeLabel;html=1;align=center;verticalAlign=middle;resizable=0;points=[];" vertex="1" connectable="0" parent="gHyegaDocdqHqECj0ACo-20">
          <mxGeometry x="-0.0451" relative="1" as="geometry">
            <mxPoint as="offset" />
          </mxGeometry>
        </mxCell>
        <mxCell id="gHyegaDocdqHqECj0ACo-22" value="" style="group;labelBackgroundColor=none;" vertex="1" connectable="0" parent="1">
          <mxGeometry x="630" y="172.60000000000002" width="120" height="90" as="geometry" />
        </mxCell>
        <mxCell id="gHyegaDocdqHqECj0ACo-23" value="&lt;b&gt;&lt;br&gt;&lt;/b&gt;" style="rounded=0;whiteSpace=wrap;html=1;fillColor=#d5e8d4;strokeColor=#82b366;labelPosition=center;verticalLabelPosition=bottom;align=center;verticalAlign=top;fontColor=#00994D;textOpacity=60;opacity=60;dashed=1;dashPattern=8 8;" vertex="1" parent="gHyegaDocdqHqECj0ACo-22">
          <mxGeometry x="17.351069982648962" width="102.64893001735126" height="74.01315789473682" as="geometry" />
        </mxCell>
        <mxCell id="gHyegaDocdqHqECj0ACo-24" value="&lt;b&gt;&lt;br&gt;&lt;/b&gt;" style="rounded=0;whiteSpace=wrap;html=1;fillColor=#d5e8d4;strokeColor=#82b366;labelPosition=center;verticalLabelPosition=bottom;align=center;verticalAlign=top;fontColor=#00994D;textOpacity=60;opacity=60;dashed=1;" vertex="1" parent="gHyegaDocdqHqECj0ACo-22">
          <mxGeometry x="8.675534991324481" y="6.653782894736846" width="102.64893001735126" height="74.01315789473682" as="geometry" />
        </mxCell>
        <mxCell id="gHyegaDocdqHqECj0ACo-25" value="&lt;b&gt;Pods Applicatifs&lt;br&gt;&lt;/b&gt;" style="rounded=0;whiteSpace=wrap;html=1;fillColor=#d5e8d4;strokeColor=#82b366;labelPosition=center;verticalLabelPosition=bottom;align=center;verticalAlign=top;fontColor=#00994D;labelBackgroundColor=default;" vertex="1" parent="gHyegaDocdqHqECj0ACo-22">
          <mxGeometry y="15.98684210526317" width="102.64893001735126" height="74.01315789473682" as="geometry" />
        </mxCell>
        <mxCell id="gHyegaDocdqHqECj0ACo-26" value="" style="aspect=fixed;sketch=0;html=1;dashed=0;whitespace=wrap;verticalLabelPosition=bottom;verticalAlign=top;fillColor=#2875E2;strokeColor=#ffffff;points=[[0.005,0.63,0],[0.1,0.2,0],[0.9,0.2,0],[0.5,0,0],[0.995,0.63,0],[0.72,0.99,0],[0.5,1,0],[0.28,0.99,0]];shape=mxgraph.kubernetes.icon2;kubernetesLabel=1;prIcon=pod;opacity=50;" vertex="1" parent="gHyegaDocdqHqECj0ACo-22">
          <mxGeometry x="43.55986119143947" y="28.56907894736843" width="35.88516746411482" height="34.44976076555023" as="geometry" />
        </mxCell>
        <mxCell id="gHyegaDocdqHqECj0ACo-27" value="" style="aspect=fixed;sketch=0;html=1;dashed=0;whitespace=wrap;verticalLabelPosition=bottom;verticalAlign=top;fillColor=#2875E2;strokeColor=#ffffff;points=[[0.005,0.63,0],[0.1,0.2,0],[0.9,0.2,0],[0.5,0,0],[0.995,0.63,0],[0.72,0.99,0],[0.5,1,0],[0.28,0.99,0]];shape=mxgraph.kubernetes.icon2;kubernetesLabel=1;prIcon=pod;opacity=80;" vertex="1" parent="gHyegaDocdqHqECj0ACo-22">
          <mxGeometry x="13.42972816656992" y="26.348684210526326" width="35.88516746411482" height="34.44976076555023" as="geometry" />
        </mxCell>
        <mxCell id="gHyegaDocdqHqECj0ACo-28" value="" style="aspect=fixed;sketch=0;html=1;dashed=0;whitespace=wrap;verticalLabelPosition=bottom;verticalAlign=top;fillColor=#2875E2;strokeColor=#ffffff;points=[[0.005,0.63,0],[0.1,0.2,0],[0.9,0.2,0],[0.5,0,0],[0.995,0.63,0],[0.72,0.99,0],[0.5,1,0],[0.28,0.99,0]];shape=mxgraph.kubernetes.icon2;kubernetesLabel=1;prIcon=pod" vertex="1" parent="gHyegaDocdqHqECj0ACo-22">
          <mxGeometry x="29.635627530364303" y="46.33223684210526" width="35.88516746411482" height="34.44976076555023" as="geometry" />
        </mxCell>
        <mxCell id="gHyegaDocdqHqECj0ACo-29" value="" style="group;labelBackgroundColor=default;" vertex="1" connectable="0" parent="1">
          <mxGeometry x="630" y="292.6" width="120" height="90" as="geometry" />
        </mxCell>
        <mxCell id="gHyegaDocdqHqECj0ACo-30" value="&lt;b&gt;&lt;br&gt;&lt;/b&gt;" style="rounded=0;whiteSpace=wrap;html=1;fillColor=#d5e8d4;strokeColor=#82b366;labelPosition=center;verticalLabelPosition=bottom;align=center;verticalAlign=top;fontColor=#00994D;textOpacity=60;opacity=60;dashed=1;dashPattern=8 8;" vertex="1" parent="gHyegaDocdqHqECj0ACo-29">
          <mxGeometry x="17.351069982648962" width="102.64893001735126" height="74.01315789473682" as="geometry" />
        </mxCell>
        <mxCell id="gHyegaDocdqHqECj0ACo-31" value="&lt;b&gt;&lt;br&gt;&lt;/b&gt;" style="rounded=0;whiteSpace=wrap;html=1;fillColor=#d5e8d4;strokeColor=#82b366;labelPosition=center;verticalLabelPosition=bottom;align=center;verticalAlign=top;fontColor=#00994D;textOpacity=60;opacity=60;dashed=1;" vertex="1" parent="gHyegaDocdqHqECj0ACo-29">
          <mxGeometry x="8.675534991324481" y="6.653782894736846" width="102.64893001735126" height="74.01315789473682" as="geometry" />
        </mxCell>
        <mxCell id="gHyegaDocdqHqECj0ACo-32" value="&lt;b&gt;Pods k8sGPT&lt;br&gt;&lt;/b&gt;" style="rounded=0;whiteSpace=wrap;html=1;fillColor=#d5e8d4;strokeColor=#82b366;labelPosition=center;verticalLabelPosition=bottom;align=center;verticalAlign=top;fontColor=#00994D;labelBackgroundColor=default;" vertex="1" parent="gHyegaDocdqHqECj0ACo-29">
          <mxGeometry y="15.98684210526317" width="102.64893001735126" height="74.01315789473682" as="geometry" />
        </mxCell>
        <mxCell id="gHyegaDocdqHqECj0ACo-33" value="" style="aspect=fixed;sketch=0;html=1;dashed=0;whitespace=wrap;verticalLabelPosition=bottom;verticalAlign=top;fillColor=#2875E2;strokeColor=#ffffff;points=[[0.005,0.63,0],[0.1,0.2,0],[0.9,0.2,0],[0.5,0,0],[0.995,0.63,0],[0.72,0.99,0],[0.5,1,0],[0.28,0.99,0]];shape=mxgraph.kubernetes.icon2;kubernetesLabel=1;prIcon=pod;opacity=50;" vertex="1" parent="gHyegaDocdqHqECj0ACo-29">
          <mxGeometry x="43.55986119143947" y="28.56907894736843" width="35.88516746411482" height="34.44976076555023" as="geometry" />
        </mxCell>
        <mxCell id="gHyegaDocdqHqECj0ACo-34" value="" style="aspect=fixed;sketch=0;html=1;dashed=0;whitespace=wrap;verticalLabelPosition=bottom;verticalAlign=top;fillColor=#2875E2;strokeColor=#ffffff;points=[[0.005,0.63,0],[0.1,0.2,0],[0.9,0.2,0],[0.5,0,0],[0.995,0.63,0],[0.72,0.99,0],[0.5,1,0],[0.28,0.99,0]];shape=mxgraph.kubernetes.icon2;kubernetesLabel=1;prIcon=pod;opacity=80;" vertex="1" parent="gHyegaDocdqHqECj0ACo-29">
          <mxGeometry x="13.42972816656992" y="26.348684210526326" width="35.88516746411482" height="34.44976076555023" as="geometry" />
        </mxCell>
        <mxCell id="gHyegaDocdqHqECj0ACo-35" value="" style="aspect=fixed;sketch=0;html=1;dashed=0;whitespace=wrap;verticalLabelPosition=bottom;verticalAlign=top;fillColor=#2875E2;strokeColor=#ffffff;points=[[0.005,0.63,0],[0.1,0.2,0],[0.9,0.2,0],[0.5,0,0],[0.995,0.63,0],[0.72,0.99,0],[0.5,1,0],[0.28,0.99,0]];shape=mxgraph.kubernetes.icon2;kubernetesLabel=1;prIcon=pod" vertex="1" parent="gHyegaDocdqHqECj0ACo-29">
          <mxGeometry x="29.635627530364303" y="46.33223684210526" width="35.88516746411482" height="34.44976076555023" as="geometry" />
        </mxCell>
        <mxCell id="gHyegaDocdqHqECj0ACo-36" value="Azure Open AI&lt;div&gt;(GPT)&lt;/div&gt;" style="image;aspect=fixed;html=1;points=[];align=center;fontSize=12;image=img/lib/azure2/ai_machine_learning/Azure_OpenAI.svg;" vertex="1" parent="1">
          <mxGeometry x="1000" y="191.60000000000002" width="68" height="68" as="geometry" />
        </mxCell>
        <mxCell id="gHyegaDocdqHqECj0ACo-37" value="Storage Account&lt;div&gt;(cache)&lt;/div&gt;" style="image;aspect=fixed;html=1;points=[];align=center;fontSize=12;image=img/lib/azure2/storage/Storage_Accounts.svg;" vertex="1" parent="1">
          <mxGeometry x="1001.5" y="348.6" width="65" height="52" as="geometry" />
        </mxCell>
      </root>
    </mxGraphModel>
  </diagram>
</mxfile>
